<svg xmlns="http://www.w3.org/2000/svg" version="1.1" xmlns:xlink="http://www.w3.org/1999/xlink" xmlns:svgjs="http://svgjs.dev/svgjs" viewBox="0 0 800 800" preserveAspectRatio="xMidYMid slice"><defs><pattern id="pppixelate-pattern" width="20" height="20" patternUnits="userSpaceOnUse" patternTransform="translate(0 0) scale(8) rotate(0)" shape-rendering="crispEdges">
    <rect width="1" height="1" x="9" y="0" fill="#FFFFFF80"></rect><rect width="1" height="1" x="10" y="0" fill="#FFFFFF80"></rect><rect width="1" height="1" x="9" y="1" fill="#FFFFFF80"></rect><rect width="1" height="1" x="10" y="1" fill="#FFFFFF80"></rect><rect width="1" height="1" x="9" y="2" fill="#FFFFFF80"></rect><rect width="1" height="1" x="10" y="2" fill="#FFFFFF80"></rect><rect width="1" height="1" x="9" y="3" fill="#FFFFFF80"></rect><rect width="1" height="1" x="10" y="3" fill="#FFFFFF80"></rect><rect width="1" height="1" x="9" y="4" fill="#FFFFFF80"></rect><rect width="1" height="1" x="10" y="4" fill="#FFFFFF80"></rect><rect width="1" height="1" x="9" y="5" fill="#FFFFFF80"></rect><rect width="1" height="1" x="10" y="5" fill="#FFFFFF80"></rect><rect width="1" height="1" x="9" y="6" fill="#FFFFFF80"></rect><rect width="1" height="1" x="10" y="6" fill="#FFFFFF80"></rect><rect width="1" height="1" x="9" y="7" fill="#FFFFFF80"></rect><rect width="1" height="1" x="10" y="7" fill="#FFFFFF80"></rect><rect width="1" height="1" x="9" y="8" fill="#FFFFFF80"></rect><rect width="1" height="1" x="10" y="8" fill="#FFFFFF80"></rect><rect width="1" height="1" x="0" y="9" fill="#FFFFFF80"></rect><rect width="1" height="1" x="1" y="9" fill="#FFFFFF80"></rect><rect width="1" height="1" x="2" y="9" fill="#FFFFFF80"></rect><rect width="1" height="1" x="3" y="9" fill="#FFFFFF80"></rect><rect width="1" height="1" x="4" y="9" fill="#FFFFFF80"></rect><rect width="1" height="1" x="5" y="9" fill="#FFFFFF80"></rect><rect width="1" height="1" x="6" y="9" fill="#FFFFFF80"></rect><rect width="1" height="1" x="7" y="9" fill="#FFFFFF80"></rect><rect width="1" height="1" x="8" y="9" fill="#FFFFFF80"></rect><rect width="1" height="1" x="9" y="9" fill="#FFFFFFbf"></rect><rect width="1" height="1" x="10" y="9" fill="#FFFFFFbf"></rect><rect width="1" height="1" x="11" y="9" fill="#FFFFFF80"></rect><rect width="1" height="1" x="12" y="9" fill="#FFFFFF80"></rect><rect width="1" height="1" x="13" y="9" fill="#FFFFFF80"></rect><rect width="1" height="1" x="14" y="9" fill="#FFFFFF80"></rect><rect width="1" height="1" x="15" y="9" fill="#FFFFFF80"></rect><rect width="1" height="1" x="16" y="9" fill="#FFFFFF80"></rect><rect width="1" height="1" x="17" y="9" fill="#FFFFFF80"></rect><rect width="1" height="1" x="18" y="9" fill="#FFFFFF80"></rect><rect width="1" height="1" x="19" y="9" fill="#FFFFFF80"></rect><rect width="1" height="1" x="0" y="10" fill="#FFFFFF80"></rect><rect width="1" height="1" x="1" y="10" fill="#FFFFFF80"></rect><rect width="1" height="1" x="2" y="10" fill="#FFFFFF80"></rect><rect width="1" height="1" x="3" y="10" fill="#FFFFFF80"></rect><rect width="1" height="1" x="4" y="10" fill="#FFFFFF80"></rect><rect width="1" height="1" x="5" y="10" fill="#FFFFFF80"></rect><rect width="1" height="1" x="6" y="10" fill="#FFFFFF80"></rect><rect width="1" height="1" x="7" y="10" fill="#FFFFFF80"></rect><rect width="1" height="1" x="8" y="10" fill="#FFFFFF80"></rect><rect width="1" height="1" x="9" y="10" fill="#FFFFFFbf"></rect><rect width="1" height="1" x="10" y="10" fill="#FFFFFFbf"></rect><rect width="1" height="1" x="11" y="10" fill="#FFFFFF80"></rect><rect width="1" height="1" x="12" y="10" fill="#FFFFFF80"></rect><rect width="1" height="1" x="13" y="10" fill="#FFFFFF80"></rect><rect width="1" height="1" x="14" y="10" fill="#FFFFFF80"></rect><rect width="1" height="1" x="15" y="10" fill="#FFFFFF80"></rect><rect width="1" height="1" x="16" y="10" fill="#FFFFFF80"></rect><rect width="1" height="1" x="17" y="10" fill="#FFFFFF80"></rect><rect width="1" height="1" x="18" y="10" fill="#FFFFFF80"></rect><rect width="1" height="1" x="19" y="10" fill="#FFFFFF80"></rect><rect width="1" height="1" x="9" y="11" fill="#FFFFFF80"></rect><rect width="1" height="1" x="10" y="11" fill="#FFFFFF80"></rect><rect width="1" height="1" x="9" y="12" fill="#FFFFFF80"></rect><rect width="1" height="1" x="10" y="12" fill="#FFFFFF80"></rect><rect width="1" height="1" x="9" y="13" fill="#FFFFFF80"></rect><rect width="1" height="1" x="10" y="13" fill="#FFFFFF80"></rect><rect width="1" height="1" x="9" y="14" fill="#FFFFFF80"></rect><rect width="1" height="1" x="10" y="14" fill="#FFFFFF80"></rect><rect width="1" height="1" x="9" y="15" fill="#FFFFFF80"></rect><rect width="1" height="1" x="10" y="15" fill="#FFFFFF80"></rect><rect width="1" height="1" x="9" y="16" fill="#FFFFFF80"></rect><rect width="1" height="1" x="10" y="16" fill="#FFFFFF80"></rect><rect width="1" height="1" x="9" y="17" fill="#FFFFFF80"></rect><rect width="1" height="1" x="10" y="17" fill="#FFFFFF80"></rect><rect width="1" height="1" x="9" y="18" fill="#FFFFFF80"></rect><rect width="1" height="1" x="10" y="18" fill="#FFFFFF80"></rect><rect width="1" height="1" x="9" y="19" fill="#FFFFFF80"></rect><rect width="1" height="1" x="10" y="19" fill="#FFFFFF80"></rect>
  </pattern></defs><rect width="100%" height="100%" fill="url(#pppixelate-pattern)"></rect></svg>
