<?xml version="1.0" encoding="UTF-8" standalone="no"?>
<!DOCTYPE svg PUBLIC "-//W3C//DTD SVG 1.1//EN" "http://www.w3.org/Graphics/SVG/1.1/DTD/svg11.dtd">
<svg width="100%" height="100%" viewBox="0 0 2797 339" version="1.1" xmlns="http://www.w3.org/2000/svg" xmlns:xlink="http://www.w3.org/1999/xlink" xml:space="preserve" xmlns:serif="http://www.serif.com/" style="fill-rule:evenodd;clip-rule:evenodd;stroke-linejoin:round;stroke-miterlimit:2;">
    <g id="Artboard1" transform="matrix(1.0925,0,0,0.235401,0,0)">
        <rect x="0" y="0" width="2560" height="1440" style="fill:none;"/>
        <clipPath id="_clip1">
            <rect x="0" y="0" width="2560" height="1440"/>
        </clipPath>
        <g clip-path="url(#_clip1)">
            <g transform="matrix(0.900331,0.765949,-0.165039,4.17845,-302.854,-1622.91)">
                <path d="M442.969,579.781C443.665,592.993 450.271,598.556 461.745,601.338C464.179,601.686 466.961,602.033 469.742,602.729C486.084,605.51 502.426,606.901 518.42,606.901C617.167,606.901 703.397,553.008 703.397,454.609C703.397,435.137 699.92,413.58 692.27,390.284C672.451,329.437 610.909,304.055 552.147,304.055C531.633,304.055 511.119,307.184 493.038,313.095L437.406,316.224C432.886,316.224 429.409,320.396 429.409,324.917L442.969,579.781ZM519.811,381.244C527.808,379.158 536.501,377.767 544.846,377.767C609.17,377.767 609.518,446.612 609.518,452.522C609.518,496.68 576.139,525.539 535.805,525.539C533.024,525.539 530.242,525.539 527.461,525.192L519.811,381.244Z" style="fill:rgb(82,178,207);fill-rule:nonzero;stroke:white;stroke-width:8.5px;"/>
            </g>
            <g transform="matrix(0.904463,-0.652716,0.140641,4.19763,-493.033,-677.805)">
                <path d="M835.175,598.556C839.695,598.556 843.52,594.732 843.52,590.212L843.52,318.658C843.52,314.138 839.695,310.313 835.175,310.313L758.333,310.313C753.813,310.313 749.989,314.138 749.989,318.658L749.989,590.212C749.989,594.732 753.813,598.556 758.333,598.556L835.175,598.556Z" style="fill:rgb(126,196,207);fill-rule:nonzero;stroke:white;stroke-width:8.5px;"/>
            </g>
            <g transform="matrix(0.909603,0.474567,-0.102255,4.22148,-417.761,-1667.16)">
                <path d="M893.589,596.123C894.632,600.643 898.804,604.467 903.324,604.467C906.801,604.815 909.931,604.815 913.408,604.815C973.56,604.815 1042.75,570.74 1042.75,513.022C1042.75,495.637 1036.49,476.166 1021.89,454.609C1005.9,432.008 997.203,415.666 997.203,403.844C997.203,384.026 1018.41,375.681 1041.01,375.681L1043.1,375.681C1045.19,375.681 1050.4,373.595 1050.4,368.031C1050.4,367.336 1050.4,366.293 1050.05,365.25L1037.88,313.79C1035.8,306.488 1028.84,305.098 1015.28,305.098C956.87,305.098 894.284,336.043 894.284,390.98C894.284,408.017 900.543,427.488 914.798,449.045C933.574,478.252 939.833,488.683 939.833,500.157C939.833,522.062 914.103,534.58 890.459,534.58L889.069,534.58C886.982,534.58 881.767,536.318 881.767,541.534C881.767,542.229 881.767,543.272 882.115,543.968L893.589,596.123Z" style="fill:rgb(82,178,207);fill-rule:nonzero;stroke:white;stroke-width:8.5px;"/>
            </g>
            <g transform="matrix(0.906906,-0.57507,0.12391,4.20897,-550.726,-504.967)">
                <path d="M1335.86,576.304C1340.73,574.217 1342.12,570.74 1342.12,567.263C1342.12,551.617 1281.97,438.614 1260.41,438.614C1256.93,438.614 1253.81,440.353 1250.33,441.744L1206.17,457.738C1246.5,428.879 1307.7,385.416 1322.3,375.681C1326.13,373.247 1328.21,370.118 1328.21,366.641C1328.21,364.207 1327.17,361.773 1325.08,359.339L1287.53,312.747C1284.4,308.922 1281.62,307.532 1278.84,307.532C1263.19,307.532 1177.31,382.982 1173.14,386.807L1173.14,318.31C1173.14,314.138 1169.66,311.009 1165.84,311.009L1092.82,311.009C1088.65,311.009 1085.52,314.138 1085.52,318.31L1085.52,591.255C1085.52,595.079 1088.65,598.556 1092.82,598.556L1165.84,598.556C1169.66,598.556 1173.14,595.079 1173.14,591.255L1173.14,481.034L1187.39,470.951C1187.39,471.298 1187.74,471.994 1188.09,472.341C1202,490.074 1255.2,577.694 1269.45,597.513C1271.89,600.643 1274.32,602.033 1277.1,602.033C1279.88,602.033 1282.66,600.643 1286.14,599.252L1335.86,576.304Z" style="fill:rgb(126,196,207);fill-rule:nonzero;stroke:white;stroke-width:8.5px;"/>
            </g>
            <g transform="matrix(0.912779,0.317071,-0.0683193,4.23623,-499.273,-1679.62)">
                <path d="M1444.69,597.861C1449.21,597.861 1453.04,594.384 1453.39,589.864L1458.25,495.637L1513.88,501.548L1514.58,501.548C1519.1,501.548 1522.93,498.071 1523.27,493.899L1530.92,435.485L1530.92,434.442C1530.92,430.27 1527.79,426.793 1523.27,426.097L1462.43,419.839L1463.82,393.066L1547.27,397.586L1547.96,397.586C1552.48,397.586 1556.31,393.761 1556.31,389.589L1559.78,323.873L1559.78,323.178C1559.78,318.658 1555.96,314.833 1551.79,314.833L1455.82,309.618L1454.43,309.618L1391.15,306.141C1386.28,306.141 1382.45,309.618 1382.45,314.138L1368.2,585.344L1368.2,586.039C1368.2,590.212 1371.68,594.036 1375.85,594.036L1444.69,597.861Z" style="fill:rgb(82,178,207);fill-rule:nonzero;stroke:white;stroke-width:8.5px;"/>
            </g>
            <g transform="matrix(0.896303,-0.861703,0.185671,4.15976,-621.087,269.662)">
                <path d="M1761.8,602.729C1766.32,602.729 1769.79,598.904 1770.14,594.732L1774.31,524.496C1774.31,519.976 1770.84,515.804 1765.97,515.456L1684.95,511.284L1695.04,319.353C1695.04,314.486 1691.56,310.661 1687.04,310.313L1615.07,306.836L1614.37,306.836C1609.85,306.836 1606.37,310.313 1606.03,314.486L1591.77,585.692C1591.77,590.559 1595.25,594.384 1599.77,594.732L1672.09,598.209L1673.48,598.209L1761.1,602.729L1761.8,602.729Z" style="fill:rgb(126,196,207);fill-rule:nonzero;stroke:white;stroke-width:8.5px;"/>
            </g>
            <g transform="matrix(0.906701,0.582018,-0.125407,4.20802,-532.373,-2342.54)">
                <path d="M2115.41,453.566C2115.41,395.5 2073.68,303.707 1962.42,303.707C1901.22,303.707 1835.16,332.914 1812.56,397.934C1805.26,419.491 1801.78,440.005 1801.78,459.129C1801.78,545.706 1871.32,604.12 1950.6,604.12C2021.18,604.12 2115.41,549.183 2115.41,453.566ZM1962.42,527.278C1926.61,527.278 1893.23,497.376 1893.23,453.218C1893.23,421.577 1910.61,378.462 1961.03,378.462C2009.36,378.462 2027.79,418.796 2027.79,453.218C2027.79,492.508 2003.8,527.278 1962.42,527.278Z" style="fill:rgb(82,178,207);fill-rule:nonzero;stroke:white;stroke-width:8.5px;"/>
            </g>
            <g transform="matrix(0.904845,-0.641214,0.138162,4.1994,-697.118,258.125)">
                <path d="M2228.06,601.338C2231.54,601.338 2234.67,598.209 2235.01,594.384L2238.49,522.41C2251.7,526.235 2265.96,528.321 2280.56,528.321C2352.89,528.321 2396.7,483.468 2396.7,419.143C2396.7,352.037 2338.63,304.402 2274.3,304.402C2260.74,304.402 2246.84,306.836 2232.93,311.356L2169.3,308.227L2168.61,308.227C2164.78,308.227 2161.65,311.356 2161.65,314.833L2147.39,589.864C2147.39,594.036 2150.18,597.166 2154.35,597.513L2227.37,601.338L2228.06,601.338ZM2245.79,380.201C2251.36,378.81 2256.92,378.115 2261.79,378.115C2287.52,378.115 2306.99,395.152 2306.99,419.491C2306.99,421.925 2306.99,459.129 2268.74,459.129C2259.35,459.129 2249.62,456.695 2241.97,453.218L2245.79,380.201Z" style="fill:rgb(126,196,207);fill-rule:nonzero;stroke:white;stroke-width:8.5px;"/>
            </g>
            <g transform="matrix(0.90412,0.662859,-0.142826,4.19604,-608.115,-2888.11)">
                <path d="M2506.92,601.338C2510.39,601.338 2513.52,598.209 2513.87,594.384L2517.35,522.41C2530.56,526.235 2544.82,528.321 2559.42,528.321C2631.74,528.321 2675.55,483.468 2675.55,419.143C2675.55,352.037 2617.49,304.402 2553.16,304.402C2539.6,304.402 2525.69,306.836 2511.78,311.356L2448.16,308.227L2447.46,308.227C2443.64,308.227 2440.51,311.356 2440.51,314.833L2426.25,589.864C2426.25,594.036 2429.03,597.166 2433.2,597.513L2506.22,601.338L2506.92,601.338ZM2524.65,380.201C2530.21,378.81 2535.78,378.115 2540.64,378.115C2566.37,378.115 2585.85,395.152 2585.85,419.491C2585.85,421.925 2585.85,459.129 2547.6,459.129C2538.21,459.129 2528.47,456.695 2520.83,453.218L2524.65,380.201Z" style="fill:rgb(82,178,207);fill-rule:nonzero;stroke:white;stroke-width:8.5px;"/>
            </g>
            <g transform="matrix(0.894756,-0.895654,0.192986,4.15258,-746.093,1363.07)">
                <path d="M2864.35,600.643C2869.22,600.643 2873.39,597.166 2873.74,592.646L2878.61,500.157C2932.5,446.959 2983.96,347.865 2983.96,337.781C2983.96,334.304 2982.22,331.871 2977.7,330.132L2920.33,308.575C2918.25,307.879 2916.86,307.532 2915.12,307.532C2911.64,307.532 2909.21,309.27 2907.12,312.399C2898.43,326.655 2845.58,407.669 2840.36,407.669C2839.32,407.669 2838.28,406.626 2836.88,404.888L2772.91,311.356C2771.52,309.27 2767.69,306.141 2762.48,306.141C2761.43,306.141 2760.04,306.488 2758.65,306.836L2694.33,325.612C2690.85,326.655 2689.11,329.784 2689.11,332.914C2689.11,334.304 2689.46,335.695 2690.16,336.738L2784.73,491.117L2779.51,587.778L2779.51,588.473C2779.51,592.993 2783.34,596.47 2787.86,596.818L2864.35,600.643Z" style="fill:rgb(126,196,207);fill-rule:nonzero;stroke:white;stroke-width:8.5px;"/>
            </g>
            <g transform="matrix(0.915332,0,0,4.24807,-717.873,-1220.78)">
                <path d="M3011.78,561.005C3011.78,537.014 2992.31,517.195 2968.32,517.195C2943.98,517.195 2924.5,537.014 2924.5,561.005C2924.5,584.996 2943.98,604.467 2968.32,604.467C2992.31,604.467 3011.78,584.996 3011.78,561.005Z" style="fill:rgb(82,178,207);fill-rule:nonzero;stroke:white;stroke-width:8.5px;"/>
            </g>
            <g transform="matrix(0.902541,0.707708,-0.15249,4.18871,-632.817,-3479.27)">
                <path d="M3378.95,601.338C3384.16,601.338 3387.99,596.123 3388.34,591.255L3400.16,321.787L3400.16,321.092C3400.16,317.267 3398.07,312.399 3391.47,312.052L3322.27,308.575L3321.58,308.575C3316.71,308.575 3311.15,311.356 3309.76,313.095C3292.72,333.261 3260.03,384.373 3231.52,433.399C3230.83,434.442 3230.48,435.137 3229.78,435.137C3229.09,435.137 3228.74,434.79 3228.05,433.747C3199.53,384.721 3166.85,333.261 3149.81,313.095C3148.42,311.356 3141.47,308.575 3136.6,308.575L3135.91,308.575L3067.41,312.399C3060.8,313.095 3058.72,318.31 3058.72,322.135L3072.28,591.255C3072.28,596.123 3076.1,601.338 3081.66,601.338L3082.01,601.338L3148.77,595.775C3156.42,595.079 3161.29,587.778 3161.29,583.953L3161.29,583.605L3145.64,435.833L3145.64,433.399C3145.64,431.313 3145.99,429.922 3146.68,429.922C3147.73,429.922 3148.77,430.965 3150.16,432.704C3156.77,441.744 3182.15,493.899 3199.53,525.887C3201.62,530.06 3205.1,535.275 3211.36,535.275L3247.17,533.884C3254.82,533.537 3258.64,528.669 3260.03,525.887C3277.07,493.899 3302.45,439.658 3308.71,430.965C3310.1,429.227 3311.15,428.183 3311.84,428.183C3312.89,428.183 3313.23,429.574 3313.23,432.008L3313.23,433.747L3296.89,583.953L3296.89,584.301C3296.89,588.125 3300.37,595.775 3308.02,596.123L3378.6,601.338L3378.95,601.338Z" style="fill:rgb(126,196,207);fill-rule:nonzero;stroke:white;stroke-width:8.5px;"/>
            </g>
            <g transform="matrix(0.910865,-0.41918,0.0903206,4.22734,-803.541,271.709)">
                <path d="M3625.12,594.036C3629.99,593.689 3633.47,589.516 3633.47,584.996L3631.03,524.496C3631.03,520.324 3627.21,516.499 3622.69,516.499L3621.99,516.499L3537.5,521.019L3535.76,488.683L3593.48,488.683C3598.35,488.683 3601.82,484.859 3602.17,479.991L3602.87,426.793L3602.87,426.097C3602.87,421.577 3598.7,418.1 3594.52,418.1L3532.28,418.1L3530.55,388.198L3611.56,384.026C3615.73,383.678 3619.56,379.853 3619.56,375.681L3619.56,374.985L3616.78,314.486C3616.43,310.313 3612.6,306.488 3608.43,306.488L3607.74,306.488L3515.25,311.356L3513.86,311.356L3450.57,314.833C3446.4,314.833 3442.58,318.658 3442.58,322.83L3442.58,323.526L3456.83,594.732C3457.18,598.904 3460.66,602.729 3464.83,602.729L3465.53,602.729L3533.33,599.252C3533.68,599.252 3534.37,598.904 3534.72,598.904L3625.12,594.036Z" style="fill:rgb(82,178,207);fill-rule:nonzero;stroke:white;stroke-width:8.5px;"/>
            </g>
        </g>
    </g>
</svg>
