<?xml version="1.0" encoding="UTF-8" standalone="no"?>
<!DOCTYPE svg PUBLIC "-//W3C//DTD SVG 1.1//EN" "http://www.w3.org/Graphics/SVG/1.1/DTD/svg11.dtd">
<svg width="100%" height="100%" viewBox="0 0 1893 339" version="1.1" xmlns="http://www.w3.org/2000/svg" xmlns:xlink="http://www.w3.org/1999/xlink" xml:space="preserve" xmlns:serif="http://www.serif.com/" style="fill-rule:evenodd;clip-rule:evenodd;stroke-linejoin:round;stroke-miterlimit:2;">
    <g transform="matrix(1,0,0,1,0,-420.871)">
        <g id="Artboard2" transform="matrix(0.73917,0,0,0.235401,0,420.871)">
            <rect x="0" y="0" width="2560" height="1440" style="fill:none;"/>
            <g transform="matrix(1.62833,0,0,5.11304,-84.1879,-2332.06)">
                <g transform="matrix(0.9823,0.187314,-0.187314,0.9823,115.768,-33.3744)">
                    <path d="M326.769,715.888C330.602,715.888 334.435,713.529 335.909,711.76C377.188,663.11 403.135,488.853 403.135,488.263C403.135,483.545 401.071,479.418 395.764,478.238L343.281,467.918C342.101,467.624 340.922,467.624 339.742,467.624C336.204,467.624 334.14,469.098 332.961,472.931C329.717,484.135 308.783,589.987 302.001,607.383C300.822,610.921 299.643,612.395 298.463,612.395C297.284,612.395 296.104,610.921 295.515,607.972L273.991,526.594C272.516,522.466 268.388,519.222 262.491,519.222L261.607,519.222L223.276,521.581C214.136,522.171 210.303,526.299 210.008,530.427C204.111,614.754 202.047,615.344 198.509,615.344C197.329,615.344 196.15,614.164 195.265,612.1L138.949,482.661C138.064,480.597 135.116,477.648 130.398,477.648C129.219,477.648 128.039,477.943 126.86,478.238L70.249,497.993C67.3,498.878 65.826,502.416 65.826,505.954C65.826,507.134 66.121,508.608 66.711,509.787L159.883,718.836C161.063,721.49 165.191,724.144 170.203,724.144L171.088,724.144L214.431,721.785C222.687,721.785 229.173,718.836 249.518,644.239L273.106,712.939C273.991,715.593 278.413,718.247 283.426,718.247L284.31,718.247L326.769,715.888Z" style="fill:rgb(223,80,0);fill-rule:nonzero;stroke:rgb(249,247,204);stroke-width:7.06px;"/>
                </g>
                <g transform="matrix(0.996964,-0.077866,0.077866,0.996964,-83.3213,42.4174)">
                    <path d="M650.81,701.735C653.758,700.556 655.233,697.312 655.233,694.364C655.233,692.889 654.643,691.12 654.053,689.941L551.74,481.776C550.561,479.123 545.548,476.174 539.356,476.174L496.603,476.174C492.18,476.174 487.757,478.238 485.988,479.712C437.928,524.53 387.508,690.236 387.508,699.376C387.508,703.799 389.867,707.337 395.469,709.106L440.581,722.08C442.35,722.669 443.825,722.964 445.299,722.964C448.837,722.964 451.196,720.9 452.67,717.362C453.555,714.708 457.683,703.799 463.285,689.646L517.832,692.3L518.422,692.3C522.255,692.3 525.203,689.056 525.498,685.518L529.036,632.74L529.036,632.15C529.036,628.317 526.088,625.074 522.255,625.074L488.642,623.305C507.218,576.423 510.461,568.168 512.82,568.168C513.704,568.168 514.589,569.052 515.473,571.116L580.93,717.952C581.815,720.016 585.353,722.669 590.071,722.669C591.545,722.669 593.314,722.375 594.788,721.785L650.81,701.735Z" style="fill:rgb(255,152,0);fill-rule:nonzero;stroke:rgb(249,247,204);stroke-width:7.06px;"/>
                </g>
                <g transform="matrix(0.997179,0.0750623,-0.0750623,0.997179,-50.4766,-58.4735)">
                    <path d="M899.664,721.785C903.497,721.785 906.74,718.836 907.035,715.003L919.124,485.02C919.124,481.187 916.175,477.648 912.342,477.648L853.077,474.405L852.488,474.405C848.655,474.405 845.706,477.648 845.411,481.187L841.283,560.502L778.48,557.258L777.89,557.258C774.352,557.258 771.109,560.502 770.814,564.04L768.455,615.639L768.455,616.228C768.455,619.767 771.404,623.01 775.237,623.305L838.04,626.253L833.322,711.17C833.322,715.003 836.271,718.247 840.104,718.541L899.664,721.785ZM750.764,720.311C754.597,720.311 757.841,717.067 757.841,713.234L757.841,482.956C757.841,479.123 754.597,475.879 750.764,475.879L690.909,475.879C687.076,475.879 683.833,479.123 683.833,482.956L683.833,713.234C683.833,717.067 687.076,720.311 690.909,720.311L750.764,720.311Z" style="fill:rgb(223,80,0);fill-rule:nonzero;stroke:rgb(249,247,204);stroke-width:7.06px;"/>
                </g>
                <g transform="matrix(0.991478,-0.130275,0.130275,0.991478,-201.194,134.945)">
                    <path d="M1022.32,629.497C1025.86,629.497 1028.22,626.843 1028.81,623.305C1033.53,596.178 1038.24,558.732 1038.24,523.94C1038.24,477.059 1033.82,476.174 1028.51,476.174L965.415,476.174C961.877,476.174 959.518,479.123 959.518,482.366C959.813,523.055 964.236,597.063 966.005,623.305C966.3,626.843 968.954,629.497 972.492,629.497L1022.32,629.497ZM996.67,726.208C1019.67,726.208 1038.54,707.337 1038.54,684.044C1038.54,660.751 1019.67,641.88 996.67,641.88C973.376,641.88 954.506,660.751 954.506,684.044C954.506,707.337 973.376,726.208 996.67,726.208Z" style="fill:rgb(255,152,0);fill-rule:nonzero;stroke:rgb(249,247,204);stroke-width:7.06px;"/>
                </g>
            </g>
            <g transform="matrix(1.08899,0,0,3.41949,182.218,-900.313)">
                <path d="M1220.95,663.011C1221.88,662.394 1222.96,661.778 1222.96,660.544C1222.96,659.928 1222.65,659.157 1221.88,658.232C1212.94,647.902 1197.06,623.541 1197.06,593.784C1197.06,565.415 1212.01,541.055 1221.26,530.108C1222.34,528.874 1222.65,527.949 1222.65,527.024C1222.65,525.945 1221.88,525.174 1220.8,524.403L1216.64,522.09C1216.02,521.782 1215.4,521.474 1214.94,521.474C1213.4,521.474 1212.16,522.553 1211.24,523.632C1202.45,533.5 1183.8,557.089 1183.8,593.784C1183.8,631.096 1203.22,654.84 1211.7,664.399C1212.78,665.632 1213.71,666.095 1214.63,666.095C1215.25,666.095 1215.71,665.941 1216.33,665.632L1220.95,663.011Z" style="fill:rgb(223,80,0);fill-rule:nonzero;stroke:rgb(249,247,204);stroke-width:5.59px;"/>
                <g transform="matrix(0.990492,-0.137573,0.137573,0.990492,-69.4464,184.165)">
                    <path d="M1242.85,649.597C1243.15,655.456 1246.09,657.923 1251.17,659.157C1252.25,659.311 1253.49,659.465 1254.72,659.773C1261.96,661.007 1269.21,661.624 1276.3,661.624C1320.09,661.624 1358.33,637.726 1358.33,594.093C1358.33,585.459 1356.79,575.899 1353.39,565.569C1344.61,538.588 1317.32,527.333 1291.26,527.333C1282.16,527.333 1273.07,528.72 1265.05,531.341L1240.38,532.729C1238.38,532.729 1236.83,534.579 1236.83,536.583L1242.85,649.597ZM1276.92,561.561C1280.47,560.635 1284.32,560.019 1288.02,560.019C1316.55,560.019 1316.7,590.546 1316.7,593.168C1316.7,612.748 1301.9,625.545 1284.01,625.545C1282.78,625.545 1281.55,625.545 1280.31,625.391L1276.92,561.561Z" style="fill:rgb(255,152,0);fill-rule:nonzero;stroke:rgb(249,247,204);stroke-width:5.59px;"/>
                </g>
                <g transform="matrix(0.999241,0.0389517,-0.0389517,0.999241,24.2226,-55.6835)">
                    <path d="M1510.66,593.63C1510.66,567.882 1492.16,527.178 1442.82,527.178C1415.68,527.178 1386.39,540.13 1376.37,568.961C1373.13,578.52 1371.59,587.617 1371.59,596.097C1371.59,634.488 1402.42,660.39 1437.58,660.39C1468.88,660.39 1510.66,636.03 1510.66,593.63ZM1442.82,626.316C1426.94,626.316 1412.14,613.057 1412.14,593.476C1412.14,579.445 1419.85,560.327 1442.2,560.327C1463.63,560.327 1471.81,578.212 1471.81,593.476C1471.81,610.898 1461.17,626.316 1442.82,626.316Z" style="fill:rgb(223,80,0);fill-rule:nonzero;stroke:rgb(249,247,204);stroke-width:5.59px;"/>
                </g>
                <g transform="matrix(0.998795,-0.0490748,0.0490748,0.998795,-27.2616,77.677)">
                    <path d="M1590.68,657.769C1592.53,657.615 1594.22,656.073 1594.22,654.069L1594.22,653.915L1589.6,565.723L1613.96,564.49C1616.12,564.336 1617.66,562.486 1617.66,560.481L1616.27,532.266C1616.27,530.108 1614.27,528.566 1612.26,528.566L1551.21,531.804L1522.38,533.346C1520.37,533.5 1518.83,535.042 1518.83,536.892L1518.83,537.2L1520.22,565.723C1520.22,567.728 1522.07,569.27 1524.23,569.27L1549.51,567.882L1554.14,655.919C1554.14,657.769 1555.68,659.465 1557.68,659.465L1557.99,659.465L1590.68,657.769Z" style="fill:rgb(255,152,0);fill-rule:nonzero;stroke:rgb(249,247,204);stroke-width:5.59px;"/>
                </g>
                <g transform="matrix(0.993146,-0.116878,0.116878,0.993146,-57.3371,210.711)">
                    <path d="M1834.28,659.157C1836.6,659.157 1838.29,656.844 1838.44,654.685L1843.69,535.196L1843.69,534.887C1843.69,533.191 1842.76,531.033 1839.83,530.879L1809.15,529.337L1808.84,529.337C1806.68,529.337 1804.22,530.57 1803.6,531.341C1796.05,540.284 1781.55,562.948 1768.91,584.688C1768.6,585.15 1768.45,585.459 1768.14,585.459C1767.83,585.459 1767.68,585.304 1767.37,584.842C1754.73,563.102 1740.23,540.284 1732.68,531.341C1732.06,530.57 1728.98,529.337 1726.82,529.337L1726.51,529.337L1696.14,531.033C1693.21,531.341 1692.28,533.654 1692.28,535.35L1698.3,654.685C1698.3,656.844 1699.99,659.157 1702.46,659.157L1702.61,659.157L1732.22,656.69C1735.61,656.381 1737.77,653.144 1737.77,651.448L1737.77,651.293L1730.83,585.767L1730.83,584.688C1730.83,583.763 1730.98,583.146 1731.29,583.146C1731.75,583.146 1732.22,583.608 1732.83,584.379C1735.76,588.388 1747.02,611.515 1754.73,625.7C1755.65,627.55 1757.19,629.862 1759.97,629.862L1775.85,629.246C1779.24,629.092 1780.94,626.933 1781.55,625.7C1789.11,611.515 1800.36,587.463 1803.14,583.608C1803.76,582.837 1804.22,582.375 1804.53,582.375C1804.99,582.375 1805.14,582.992 1805.14,584.071L1805.14,584.842L1797.9,651.448L1797.9,651.602C1797.9,653.298 1799.44,656.69 1802.83,656.844L1834.13,659.157L1834.28,659.157Z" style="fill:rgb(223,80,0);fill-rule:nonzero;stroke:rgb(249,247,204);stroke-width:5.59px;"/>
                </g>
                <g transform="matrix(0.994193,0.107609,-0.107609,0.994193,75.0929,-204.041)">
                    <path d="M1997.71,593.63C1997.71,567.882 1979.21,527.178 1929.87,527.178C1902.74,527.178 1873.44,540.13 1863.42,568.961C1860.18,578.52 1858.64,587.617 1858.64,596.097C1858.64,634.488 1889.48,660.39 1924.63,660.39C1955.93,660.39 1997.71,636.03 1997.71,593.63ZM1929.87,626.316C1913.99,626.316 1899.19,613.057 1899.19,593.476C1899.19,579.445 1906.9,560.327 1929.26,560.327C1950.69,560.327 1958.86,578.212 1958.86,593.476C1958.86,610.898 1948.22,626.316 1929.87,626.316Z" style="fill:rgb(255,152,0);fill-rule:nonzero;stroke:rgb(249,247,204);stroke-width:5.59px;"/>
                </g>
                <g transform="matrix(0.99192,-0.126865,0.126865,0.99192,-58.7652,265.507)">
                    <path d="M2093.61,655.919C2095.77,655.765 2097.31,653.915 2097.31,651.91L2096.24,625.083C2096.24,623.233 2094.54,621.537 2092.53,621.537L2092.23,621.537L2054.76,623.541L2053.99,609.202L2079.58,609.202C2081.74,609.202 2083.28,607.506 2083.44,605.348L2083.75,581.758L2083.75,581.45C2083.75,579.445 2081.9,577.904 2080.05,577.904L2052.45,577.904L2051.68,564.644L2087.6,562.794C2089.45,562.64 2091.15,560.944 2091.15,559.094L2091.15,558.785L2089.91,531.958C2089.76,530.108 2088.06,528.412 2086.21,528.412L2085.91,528.412L2044.89,530.57L2044.28,530.57L2016.22,532.112C2014.37,532.112 2012.67,533.808 2012.67,535.658L2012.67,535.967L2018.99,656.227C2019.14,658.077 2020.69,659.773 2022.54,659.773L2022.85,659.773L2052.91,658.232C2053.06,658.232 2053.37,658.077 2053.53,658.077L2093.61,655.919Z" style="fill:rgb(223,80,0);fill-rule:nonzero;stroke:rgb(249,247,204);stroke-width:5.59px;"/>
                </g>
                <path d="M2115.35,665.632C2115.97,665.941 2116.43,666.095 2117.05,666.095C2117.97,666.095 2118.9,665.632 2119.98,664.399C2128.46,654.84 2147.89,631.096 2147.89,593.784C2147.89,557.089 2129.23,533.5 2120.44,523.632C2119.52,522.553 2118.28,521.474 2116.74,521.474C2116.28,521.474 2115.66,521.782 2115.05,522.09L2110.88,524.403C2109.8,525.174 2109.03,525.945 2109.03,527.024C2109.03,527.949 2109.34,528.874 2110.42,530.108C2119.67,541.055 2134.63,565.415 2134.63,593.784C2134.63,623.541 2118.74,647.902 2109.8,658.232C2109.03,659.157 2108.72,659.928 2108.72,660.544C2108.72,661.778 2109.8,662.394 2110.73,663.011L2115.35,665.632Z" style="fill:rgb(255,152,0);fill-rule:nonzero;stroke:rgb(249,247,204);stroke-width:5.59px;"/>
            </g>
        </g>
    </g>
</svg>
